<svg height="24" viewBox="0 0 24 24" width="24" xmlns="http://www.w3.org/2000/svg"><path d="m3.84674576 17.8602756c.19747034.0956834.41909523.1493366.65325152.1493366h15.00000272c.234157 0 .4557825-.0536535.6532533-.1493375l-5.9086286-5.5610622-1.9267711 1.5867526c-.1846279.1520465-.4510793.1520465-.6357072 0l-1.92677107-1.5867526zm-.70365326-.7104533c.0046301-.0047126.00937185-.0093545.01422515-.0139223l5.81988317-5.4775371-5.79505445-4.77239778c-.01263654-.01040657-.02463114-.0213036-.03597893-.03264079-.09369981.19580951-.14617016.41511504-.14617016.64667567v9.0096122c0 .2290153.05132317.4460434.14309522.6402101zm17.7138132-.0000019c.0917715-.1941662.1430943-.4111936.1430943-.6402082v-9.0096122c0-.23155991-.05247-.45086478-.1461693-.64667383-.0113472.01133652-.0233412.02223294-.0359771.03263895l-5.7950544 4.77239778 5.8198831 5.4775371c.0048527.0045672.0095939.0092085.0142234.0139204zm-.7124776-11.00472344c-.1952395-.09302717-.413753-.14509696-.6444281-.14509696h-15.00000272c-.23067439 0-.44918731.05206949-.64442642.14509614l8.14442914 6.70717696zm-15.64443082-1.14509696h15.00000272c1.3807119 0 2.5 1.11928813 2.5 2.5v9.0096122c0 1.3807119-1.1192881 2.5-2.5 2.5h-15.00000272c-1.38071187 0-2.5-1.1192881-2.5-2.5v-9.0096122c0-1.38071187 1.11928813-2.5 2.5-2.5z"/></svg>